<svg width="39" height="40" viewBox="0 0 39 40" fill="none" xmlns="http://www.w3.org/2000/svg">
<path d="M0 0.655762H38.648V39.3041H0V0.655762Z" fill="#F0DB4F"/>
<path d="M35.4854 30.0867C35.2023 28.3235 34.0526 26.8425 30.647 25.4616C29.464 24.9179 28.1451 24.5286 27.7521 23.6321C27.6125 23.1103 27.594 22.8164 27.6823 22.5006C27.9358 21.4756 29.1593 21.1561 30.129 21.45C30.7535 21.6593 31.3448 22.1406 31.7013 22.9084C33.3691 21.8285 33.3657 21.8356 34.5302 21.0934C34.1039 20.4324 33.8763 20.1274 33.5973 19.8446C32.5942 18.7242 31.2274 18.1472 29.0416 18.1913L27.903 18.3386C26.812 18.6143 25.7722 19.187 25.1625 19.9548C23.3329 22.0307 23.8547 25.6638 26.0809 27.159C28.2741 28.8051 31.496 29.1796 31.9076 30.7189C32.308 32.6034 30.5226 33.2135 28.748 32.9968C27.4403 32.7248 26.7129 32.0601 25.9266 30.8514C24.4792 31.689 24.4792 31.689 22.9912 32.5448C23.344 33.3163 23.7148 33.6655 24.3063 34.3339C27.1059 37.1736 34.1116 37.034 35.3681 32.7359C35.4191 32.5883 35.7574 31.6041 35.4854 30.0867ZM21.0107 18.4189H17.3957L17.3809 27.7647C17.3809 29.7523 17.4837 31.5744 17.1605 32.1329C16.6316 33.2314 15.2612 33.0952 14.6366 32.8822C14.001 32.5698 13.6777 32.1255 13.3032 31.4976C13.2004 31.3173 13.1232 31.1777 13.0973 31.1669L10.1582 32.9668C10.6469 33.9699 11.3669 34.8405 12.2891 35.4061C13.6666 36.2329 15.5181 36.4863 17.4544 36.0418C18.7146 35.6747 19.802 34.9143 20.3713 33.7568C21.1944 32.2394 21.0178 30.4028 21.0104 28.3714C21.0289 25.0572 21.0107 21.7436 21.0107 18.4189Z" fill="#323330"/>
</svg>
