<svg width="37" height="42" viewBox="0 0 37 42" fill="none" xmlns="http://www.w3.org/2000/svg">
<path d="M3.36731 37.7658L0 0H37L33.6282 37.7598L18.4775 41.9603L3.36731 37.7658Z" fill="#E44F26"/>
<path d="M18.502 38.7492L30.7454 35.3549L33.6256 3.0874H18.502V38.7492Z" fill="#F1662A"/>
<path d="M18.5007 17.0924H12.3715L11.9489 12.3494H18.5007V7.71729H6.88672L6.99761 8.96111L8.13504 21.7245H18.5007V17.0924ZM18.5007 29.1215L18.4798 29.1275L13.3216 27.7354L12.9919 24.0413H8.34184L8.99073 31.3125L18.4798 33.947L18.5007 33.941V29.1215Z" fill="#EBEBEB"/>
<path d="M18.4834 17.0924V21.7245H24.187L23.6505 27.7324L18.4834 29.126V33.9455L27.9799 31.3125L28.0488 30.5302L29.1368 18.3362L29.2507 17.0924H18.4834ZM18.4834 7.71729V12.3494H29.6718L29.7647 11.3094L29.976 8.96111L30.0869 7.71729H18.4834Z" fill="white"/>
</svg>
