<svg width="47" height="42" viewBox="0 0 47 42" fill="none" xmlns="http://www.w3.org/2000/svg">
<path d="M23.6484 14.4088C35.8779 14.4088 43.3627 18.6638 43.3627 20.9802C43.3627 23.2966 35.8779 27.5516 23.6484 27.5516C11.419 27.5516 3.93415 23.2966 3.93415 20.9802C3.93415 18.6638 11.419 14.4088 23.6484 14.4088ZM23.6484 11.123C10.9459 11.123 0.648438 15.5358 0.648438 20.9802C0.648438 26.4246 10.9459 30.8373 23.6484 30.8373C36.351 30.8373 46.6484 26.4246 46.6484 20.9802C46.6484 15.5358 36.351 11.123 23.6484 11.123Z" fill="#00BCD4"/>
<path d="M23.649 17.6943C22.9991 17.6943 22.3639 17.887 21.8236 18.2481C21.2832 18.6091 20.8621 19.1223 20.6134 19.7227C20.3647 20.323 20.2996 20.9837 20.4264 21.6211C20.5532 22.2584 20.8661 22.8439 21.3256 23.3034C21.7852 23.7629 22.3706 24.0759 23.008 24.2026C23.6454 24.3294 24.306 24.2643 24.9064 24.0157C25.5068 23.767 26.0199 23.3458 26.381 22.8055C26.742 22.2652 26.9347 21.6299 26.9347 20.9801C26.9347 20.1086 26.5885 19.2729 25.9723 18.6567C25.3562 18.0405 24.5204 17.6943 23.649 17.6943Z" fill="#00BCD4"/>
<path d="M14.5426 3.74323C17.8562 3.74323 24.2962 8.96259 29.3382 17.696C35.4529 28.2875 35.5104 36.8961 33.5044 38.0543C33.273 38.1743 33.014 38.231 32.7537 38.2186C29.44 38.2186 22.9984 33.0009 17.9564 24.2674C11.8417 13.6759 11.7842 5.06738 13.7902 3.90916C14.0221 3.78889 14.2817 3.73057 14.5426 3.74323ZM14.5409 0.459162C13.7037 0.444012 12.8775 0.652121 12.1473 1.06209C7.4323 3.78431 8.75973 14.9097 15.111 25.9103C20.5062 35.2582 27.7939 41.5059 32.7553 41.5059C33.5923 41.5198 34.4179 41.3106 35.1473 40.8997C39.8623 38.1792 38.5349 27.0537 32.1836 16.0532C26.7884 6.70531 19.5007 0.45752 14.5393 0.45752L14.5409 0.459162Z" fill="#00BCD4"/>
<path d="M32.7533 3.74049C33.0137 3.72811 33.2727 3.78479 33.5041 3.90477C35.51 5.06463 35.4525 13.6732 29.3378 24.2647C24.2942 32.9981 17.8542 38.2175 14.5406 38.2175C14.2802 38.2299 14.0212 38.1732 13.7898 38.0532C11.7839 36.8917 11.8414 28.2831 17.9561 17.6933C22.9996 8.95984 29.4396 3.74049 32.7533 3.74049ZM32.7533 0.454774C27.7919 0.454774 20.5058 6.7042 15.109 16.0504C8.761 27.051 7.43193 38.1764 12.1469 40.897C12.8768 41.3081 13.703 41.5174 14.5406 41.5032C19.502 41.5032 26.7881 35.2538 32.1849 25.9076C38.5329 14.907 39.8619 3.78156 35.1469 1.06099C34.4171 0.649873 33.5908 0.440626 32.7533 0.454774Z" fill="#00BCD4"/>
</svg>
