<svg width="28" height="24" viewBox="0 0 28 24" fill="none" xmlns="http://www.w3.org/2000/svg">
<path d="M14.8325 21.374H3.92361C3.44141 21.374 2.97896 21.1824 2.63799 20.8415C2.29702 20.5005 2.10547 20.038 2.10547 19.5558V3.79861C2.10547 3.31641 2.29702 2.85396 2.63799 2.51299C2.97896 2.17202 3.44141 1.98047 3.92361 1.98047H24.5292C25.0114 1.98047 25.4739 2.17202 25.8148 2.51299C26.1558 2.85396 26.3474 3.31641 26.3474 3.79861V12.2475" stroke="white" stroke-width="2.42419" stroke-linecap="round" stroke-linejoin="round"/>
<path d="M2.10547 3.79861C2.10547 3.31641 2.29702 2.85396 2.63799 2.51299C2.97896 2.17202 3.44141 1.98047 3.92361 1.98047H24.5292C25.0114 1.98047 25.4739 2.17202 25.8148 2.51299C26.1558 2.85396 26.3474 3.31641 26.3474 3.79861V9.25304H2.10547V3.79861Z" stroke="white" stroke-width="2.42419"/>
<path d="M19.0752 18.3438H26.3478M22.7115 14.7075V21.9801" stroke="white" stroke-width="2.42419" stroke-linecap="round" stroke-linejoin="round"/>
<path d="M4.52991 5.61701C4.52991 4.94759 5.07259 4.40491 5.74201 4.40491C6.41143 4.40491 6.9541 4.94759 6.9541 5.61701C6.9541 6.28643 6.41143 6.8291 5.74201 6.8291C5.07259 6.8291 4.52991 6.28643 4.52991 5.61701Z" fill="white"/>
<path d="M8.16614 5.61701C8.16614 4.94759 8.70882 4.40491 9.37824 4.40491C10.0477 4.40491 10.5903 4.94759 10.5903 5.61701C10.5903 6.28643 10.0477 6.8291 9.37824 6.8291C8.70882 6.8291 8.16614 6.28643 8.16614 5.61701Z" fill="white"/>
</svg>
