<svg width="43" height="42" viewBox="0 0 43 42" fill="none" xmlns="http://www.w3.org/2000/svg">
<mask id="mask0_577_766" style="mask-type:luminance" maskUnits="userSpaceOnUse" x="0" y="0" width="43" height="42">
<path d="M21.6479 42C33.2459 42 42.6479 32.598 42.6479 21C42.6479 9.40202 33.2459 0 21.6479 0C10.05 0 0.647949 9.40202 0.647949 21C0.647949 32.598 10.05 42 21.6479 42Z" fill="white"/>
</mask>
<g mask="url(#mask0_577_766)">
<path d="M21.6479 42C33.2459 42 42.6479 32.598 42.6479 21C42.6479 9.40202 33.2459 0 21.6479 0C10.05 0 0.647949 9.40202 0.647949 21C0.647949 32.598 10.05 42 21.6479 42Z" fill="black"/>
<path d="M35.5328 36.7542L16.7806 12.5996H13.2476V29.3926H16.074V16.1893L33.314 38.4634C34.0908 37.9437 34.8321 37.3727 35.5328 36.7542Z" fill="url(#paint0_linear_577_766)"/>
<path d="M27.481 12.5996H30.281V29.3996H27.481V12.5996Z" fill="url(#paint1_linear_577_766)"/>
</g>
<defs>
<linearGradient id="paint0_linear_577_766" x1="1253.04" y1="1470.93" x2="1997.24" y2="2393.33" gradientUnits="userSpaceOnUse">
<stop stop-color="white"/>
<stop offset="1" stop-color="white" stop-opacity="0"/>
</linearGradient>
<linearGradient id="paint1_linear_577_766" x1="167.484" y1="12.5996" x2="162.746" y2="1246.34" gradientUnits="userSpaceOnUse">
<stop stop-color="white"/>
<stop offset="1" stop-color="white" stop-opacity="0"/>
</linearGradient>
</defs>
</svg>
