<svg width="44" height="42" viewBox="0 0 44 42" fill="none" xmlns="http://www.w3.org/2000/svg">
<path d="M21.6055 0.0209961C18.782 0.0209961 15.9863 0.57711 13.3778 1.65759C10.7693 2.73806 8.39913 4.32174 6.40267 6.3182C2.37064 10.3502 0.105469 15.8188 0.105469 21.521C0.105469 31.024 6.27597 39.0865 14.8115 41.946C15.8865 42.118 16.2305 41.4515 16.2305 40.871V37.2375C10.275 38.5275 9.00647 34.3565 9.00647 34.3565C8.01747 31.8625 6.61997 31.196 6.61997 31.196C4.66347 29.863 6.77047 29.906 6.77047 29.906C8.92047 30.0565 10.06 32.1205 10.06 32.1205C11.9305 35.3885 15.091 34.421 16.3165 33.905C16.51 32.5075 17.069 31.5615 17.671 31.024C12.898 30.4865 7.88847 28.6375 7.88847 20.446C7.88847 18.0595 8.70547 16.146 10.103 14.6195C9.88797 14.082 9.13547 11.846 10.318 8.9435C10.318 8.9435 12.124 8.363 16.2305 11.1365C17.929 10.6635 19.778 10.427 21.6055 10.427C23.433 10.427 25.282 10.6635 26.9805 11.1365C31.087 8.363 32.893 8.9435 32.893 8.9435C34.0755 11.846 33.323 14.082 33.108 14.6195C34.5055 16.146 35.3225 18.0595 35.3225 20.446C35.3225 28.659 30.2915 30.465 25.497 31.0025C26.271 31.669 26.9805 32.9805 26.9805 34.98V40.871C26.9805 41.4515 27.3245 42.1395 28.421 41.946C36.9565 39.065 43.1055 31.024 43.1055 21.521C43.1055 18.6976 42.5494 15.9018 41.4689 13.2933C40.3884 10.6848 38.8047 8.31466 36.8083 6.3182C34.8118 4.32174 32.4417 2.73806 29.8332 1.65759C27.2247 0.57711 24.4289 0.0209961 21.6055 0.0209961Z" fill="black"/>
</svg>
