<svg width="36" height="36" viewBox="0 0 36 36" fill="none" xmlns="http://www.w3.org/2000/svg">
<path d="M14.1547 1.90845L12.4563 3.60689L14.7867 5.93735L17.227 8.37763C17.7828 8.10268 18.3996 7.97414 19.0189 8.00417C19.6383 8.03421 20.2397 8.22182 20.7663 8.54926C21.2929 8.8767 21.7272 9.33312 22.0281 9.87531C22.329 10.4175 22.4865 11.0275 22.4858 11.6476C22.4727 12.201 22.3438 12.7454 22.1076 13.246L24.621 15.6863C25.2802 15.3054 26.0516 15.1665 26.8022 15.2935C27.5528 15.4204 28.2356 15.8053 28.7329 16.3817C29.0804 16.7149 29.3551 17.1164 29.5399 17.561C29.7247 18.0055 29.8155 18.4834 29.8066 18.9648C29.8074 19.9259 29.4326 20.8493 28.7622 21.538C28.4249 21.8903 28.0184 22.1691 27.5682 22.3568C27.118 22.5445 26.6339 22.6371 26.1462 22.6288C25.6638 22.6364 25.1849 22.5463 24.7382 22.3639C24.2916 22.1814 23.8865 21.9105 23.5473 21.5673C22.9727 21.0659 22.5903 20.3803 22.4656 19.6279C22.341 18.8755 22.4818 18.1032 22.864 17.4433L20.4238 14.9298C20.3005 14.9855 20.1742 15.0344 20.0455 15.0762V22.8607C20.7539 23.113 21.3674 23.5774 21.8025 24.1906C22.2467 24.8002 22.4859 25.535 22.4858 26.2893C22.4954 26.7725 22.4052 27.2524 22.2209 27.6992C22.0365 28.1459 21.762 28.5499 21.4145 28.8857C20.7501 29.5494 19.8546 29.9302 18.9157 29.9485C18.2372 29.9697 17.5663 29.8006 16.9789 29.4603C16.3915 29.1201 15.9111 28.6223 15.5919 28.0232C15.2728 27.4241 15.1276 26.7476 15.1729 26.0703C15.2182 25.393 15.4521 24.7419 15.8482 24.1906C16.2834 23.5774 16.8969 23.113 17.6052 22.8607V15.0762C16.8953 14.8267 16.2811 14.3618 15.8482 13.7462C15.4026 13.1374 15.1631 12.4021 15.165 11.6476C15.1639 11.0925 15.2935 10.545 15.5432 10.0492L10.7847 5.29068L1.53724 14.5296C1.08375 14.9827 0.723974 15.5208 0.478475 16.113C0.232976 16.7052 0.106559 17.34 0.106445 17.9811C0.106332 18.6222 0.232525 19.257 0.477814 19.8493C0.723104 20.4416 1.08268 20.9798 1.53602 21.4331L14.1547 34.0518C15.0699 34.9668 16.3111 35.4807 17.6052 35.4807C18.8994 35.4807 20.1406 34.9668 21.0558 34.0518L33.6769 21.4307C34.5919 20.5154 35.1059 19.2743 35.1059 17.9801C35.1059 16.686 34.5919 15.4448 33.6769 14.5296L21.0558 1.90845C20.1406 0.99349 18.8994 0.479492 17.6052 0.479492C16.3111 0.479492 15.0699 0.99349 14.1547 1.90845Z" fill="#E64A19"/>
</svg>
