<svg width="27" height="40" viewBox="0 0 27 40" fill="none" xmlns="http://www.w3.org/2000/svg">
<path d="M7.14795 39.48C10.7359 39.48 13.6479 36.568 13.6479 32.98V26.48H7.14795C3.55995 26.48 0.647949 29.392 0.647949 32.98C0.647949 36.568 3.55995 39.48 7.14795 39.48Z" fill="#0ACF83"/>
<path d="M0.647949 19.98C0.647949 16.392 3.55995 13.48 7.14795 13.48H13.6479V26.48H7.14795C3.55995 26.48 0.647949 23.568 0.647949 19.98Z" fill="#A259FF"/>
<path d="M0.647949 6.97998C0.647949 3.39198 3.55995 0.47998 7.14795 0.47998H13.6479V13.48H7.14795C3.55995 13.48 0.647949 10.568 0.647949 6.97998Z" fill="#F24E1E"/>
<path d="M13.6479 0.47998H20.1479C23.7359 0.47998 26.6479 3.39198 26.6479 6.97998C26.6479 10.568 23.7359 13.48 20.1479 13.48H13.6479V0.47998Z" fill="#FF7262"/>
<path d="M26.6479 19.98C26.6479 23.568 23.7359 26.48 20.1479 26.48C16.5599 26.48 13.6479 23.568 13.6479 19.98C13.6479 16.392 16.5599 13.48 20.1479 13.48C23.7359 13.48 26.6479 16.392 26.6479 19.98Z" fill="#1ABCFE"/>
</svg>
