<svg width="37" height="42" viewBox="0 0 37 42" fill="none" xmlns="http://www.w3.org/2000/svg">
<path d="M3.36711 37.7652L0 0H37L33.6295 37.7595L18.4776 41.96L3.36711 37.7652Z" fill="#1572B6"/>
<path d="M18.501 38.7492L30.7447 35.3548L33.6252 3.0874H18.501V38.7492Z" fill="#33A9DC"/>
<path d="M18.501 16.7707H24.6304L25.0537 12.0278H18.501V7.396H30.1161L30.0049 8.63875L28.8662 21.4025H18.501V16.7707Z" fill="white"/>
<path d="M18.528 28.8001L18.5076 28.8061L13.3491 27.4133L13.0192 23.7192H8.37012L9.01882 30.9919L18.5069 33.6251L18.528 33.6191V28.8001Z" fill="#EBEBEB"/>
<path d="M24.2349 21.2051L23.6769 27.4078L18.5107 28.8023V33.6212L28.0066 30.9897L28.0762 30.2071L28.882 21.2051H24.2349Z" fill="white"/>
<path d="M18.5151 7.396V12.0278H7.32672L7.23395 10.987L7.02296 8.63875L6.91211 7.396H18.5151ZM18.4994 16.7714V21.4032H13.4059L13.3131 20.3624L13.1018 18.0142L12.9913 16.7714H18.4994Z" fill="#EBEBEB"/>
</svg>
