<svg width="34" height="34" viewBox="0 0 34 34" fill="none" xmlns="http://www.w3.org/2000/svg">
<path d="M16.6055 0.47998C14.4387 0.47998 12.2931 0.917361 10.2912 1.76715C8.28932 2.61694 6.47037 3.86249 4.93821 5.4327C1.84386 8.60387 0.105469 12.9049 0.105469 17.3896C0.105469 24.8637 4.84097 31.2048 11.3915 33.4538C12.2165 33.5891 12.4805 33.0649 12.4805 32.6083V29.7506C7.90997 30.7652 6.93647 27.4847 6.93647 27.4847C6.17747 25.5232 5.10497 24.999 5.10497 24.999C3.60347 23.9506 5.22047 23.9844 5.22047 23.9844C6.87047 24.1028 7.74497 25.7261 7.74497 25.7261C9.18047 28.2963 11.606 27.5354 12.5465 27.1296C12.695 26.0305 13.124 25.2864 13.586 24.8637C9.92297 24.4409 6.07847 22.9867 6.07847 16.5441C6.07847 14.6672 6.70547 13.1622 7.77797 11.9616C7.61297 11.5389 7.03547 9.78029 7.94297 7.49748C7.94297 7.49748 9.32897 7.04092 12.4805 9.22227C13.784 8.85025 15.203 8.66425 16.6055 8.66425C18.008 8.66425 19.427 8.85025 20.7305 9.22227C23.882 7.04092 25.268 7.49748 25.268 7.49748C26.1755 9.78029 25.598 11.5389 25.433 11.9616C26.5055 13.1622 27.1325 14.6672 27.1325 16.5441C27.1325 23.0036 23.2715 24.424 19.592 24.8468C20.186 25.371 20.7305 26.4025 20.7305 27.9751V32.6083C20.7305 33.0649 20.9945 33.606 21.836 33.4538C28.3865 31.1879 33.1055 24.8637 33.1055 17.3896C33.1055 15.169 32.6787 12.9702 31.8495 10.9186C31.0203 8.86701 29.8049 7.00291 28.2727 5.4327C26.7406 3.86249 24.9216 2.61694 22.9197 1.76715C20.9179 0.917361 18.7723 0.47998 16.6055 0.47998Z" fill="white"/>
</svg>
