<svg width="36" height="36" viewBox="0 0 36 36" fill="none" xmlns="http://www.w3.org/2000/svg">
<path d="M35.1064 17.9804C35.1064 27.6449 27.2715 35.4799 17.6065 35.4799C7.94121 35.4799 0.106445 27.6449 0.106445 17.9804C0.106445 8.31537 7.94148 0.480469 17.6065 0.480469C27.2717 0.480469 35.1064 8.31537 35.1064 17.9804Z" fill="#DD4814"/>
<path d="M5.70695 15.6431C4.416 15.6431 3.37012 16.689 3.37012 17.9799C3.37012 19.2702 4.416 20.3162 5.70695 20.3162C6.99735 20.3162 8.04324 19.2702 8.04324 17.9799C8.04324 16.689 6.99735 15.6431 5.70695 15.6431ZM22.3889 26.262C21.2715 26.9076 20.8881 28.3357 21.5337 29.4526C22.1785 30.5702 23.6067 30.9532 24.7242 30.3078C25.8417 29.663 26.2249 28.2348 25.5795 27.1171C24.9346 26.0004 23.5057 25.6173 22.3889 26.262ZM10.7821 17.9799C10.7821 15.671 11.929 13.6311 13.6837 12.3959L11.9756 9.53496C9.93148 10.9014 8.41041 12.9894 7.7783 15.4349C8.51595 16.0366 8.98797 16.9528 8.98797 17.9798C8.98797 19.0062 8.51595 19.9224 7.7783 20.5242C8.40959 22.9703 9.93066 25.0585 11.9756 26.425L13.6837 23.5632C11.929 22.3287 10.7821 20.2889 10.7821 17.9799ZM17.6064 11.1548C21.1717 11.1548 24.0968 13.8883 24.4038 17.3745L27.7329 17.3255C27.5693 14.7518 26.4449 12.4413 24.7174 10.7423C23.829 11.078 22.8027 11.0266 21.9159 10.5153C21.0274 10.0026 20.4703 9.13763 20.318 8.19878C19.4348 7.95444 18.5227 7.83043 17.6063 7.8301C16.046 7.82857 14.5065 8.18803 13.1082 8.88037L14.7316 11.7897C15.632 11.3706 16.6133 11.1539 17.6064 11.1548ZM17.6064 24.8044C16.6133 24.8053 15.6321 24.5886 14.7318 24.1696L13.1083 27.0786C14.5064 27.7718 16.0461 28.1317 17.6066 28.13C18.523 28.1298 19.4351 28.0055 20.3181 27.7603C20.4704 26.8215 21.0277 25.9573 21.9159 25.4438C22.8035 24.9316 23.8291 24.8812 24.7174 25.2168C26.445 23.5179 27.5693 21.2073 27.7332 18.6337L24.4031 18.5846C24.0968 22.0718 21.1719 24.8044 17.6064 24.8044ZM22.3881 9.69628C23.5057 10.3415 24.9339 9.95943 25.5787 8.84186C26.2242 7.72429 25.8418 6.29601 24.7242 5.65047C23.6067 5.00575 22.1785 5.38869 21.5329 6.50626C20.8883 7.62328 21.2714 9.05142 22.3881 9.69628Z" fill="white"/>
</svg>
