<svg width="52" height="38" viewBox="0 0 52 38" fill="none" xmlns="http://www.w3.org/2000/svg">
<path fill-rule="evenodd" clip-rule="evenodd" d="M0.647949 15.8475C0.647949 16.13 0.731139 16.3165 0.777758 16.4978C1.08158 17.6765 1.73464 18.688 2.50948 19.6108C3.61305 20.9257 4.96459 21.9843 6.34908 22.9798C7.54991 23.843 8.77526 24.687 9.98091 25.5438C10.1879 25.6909 10.3836 25.8601 10.6083 26.0405C10.4149 26.145 10.2542 26.237 10.087 26.3218C8.49595 27.1288 6.96517 28.0335 5.55415 29.1294C4.70377 29.7901 3.88151 30.4922 3.30079 31.4097C2.36641 32.8854 2.03566 34.4576 2.73212 36.1362C2.93548 36.6265 3.24573 37.0501 3.68338 37.3632C3.82525 37.4645 3.98439 37.5649 4.15037 37.6043C4.57557 37.7044 5.0088 37.7699 5.43922 37.8491L6.65813 37.8483C8.00605 37.7281 9.233 37.2663 10.3418 36.5012C12.0747 35.3051 13.2422 33.7016 13.7442 31.6436C14.1091 30.1478 14.1239 28.6503 13.6939 27.1614C13.6526 27.0235 13.6051 26.8875 13.5517 26.7539C13.4994 26.62 13.4379 26.4898 13.3656 26.323L16.1289 24.734L16.1703 24.7693C16.1201 24.9337 16.0666 25.0977 16.0212 25.2637C15.6929 26.4629 15.4747 27.683 15.553 28.9276C15.6366 30.2539 16.0068 31.4953 16.7832 32.6033C17.4109 33.4995 18.9068 33.5328 19.5739 32.6334C19.8106 32.3139 20.0401 31.98 20.2125 31.6235C20.663 30.6931 21.0802 29.7463 21.5106 28.8059L21.5857 28.6339C21.5548 29.0792 21.5186 29.4702 21.5021 29.8616C21.4764 30.4729 21.5122 31.0805 21.7212 31.6621C21.9 32.1596 22.2042 32.5313 22.7741 32.5969C23.1639 32.6415 23.4746 32.463 23.7611 32.2368C24.2049 31.8858 24.5728 31.4485 24.8426 30.9511C25.6066 29.5482 26.3911 28.1536 27.0835 26.7153C27.8326 25.1596 28.4877 23.5585 29.1833 21.9763L29.2983 21.6957C29.4627 22.3416 29.5772 22.9741 29.7882 23.5729C30.0333 24.2678 30.3368 24.9462 30.6671 25.6057C30.8234 25.9171 30.8054 26.1193 30.5887 26.3805C29.6821 27.4736 28.7911 28.58 27.8993 29.6852C27.702 29.9291 27.5055 30.1775 27.3411 30.444C27.2414 30.6122 27.1758 30.7985 27.1482 30.9921C27.1205 31.1704 27.163 31.3524 27.2666 31.5001C27.3702 31.6478 27.527 31.7496 27.704 31.7842C28.0614 31.861 28.4277 31.8871 28.7923 31.8618C30.037 31.7702 31.167 31.3333 32.1661 30.5931C33.4606 29.6342 33.8762 28.3256 33.5627 26.7748C33.4779 26.354 33.328 25.9449 33.1821 25.5394C33.1166 25.3565 33.1122 25.2283 33.2315 25.0579C34.2664 23.5802 35.1505 22.0124 35.9728 20.4085C36.0053 20.3454 36.0387 20.2823 36.0958 20.2148C36.3622 21.6013 36.7633 22.9376 37.4819 24.15C37.1153 24.5033 36.7524 24.8236 36.4241 25.1765C35.7011 25.9537 35.0742 26.7977 34.747 27.8269C34.6064 28.2706 34.4983 28.7215 34.561 29.1953C34.6582 29.9312 35.261 30.4094 35.9848 30.2418C37.5337 29.8833 38.8708 29.1535 39.8478 27.8606C40.5052 26.9902 40.5651 26.0192 40.2898 25.002C40.2143 24.7255 40.1247 24.4535 40.0282 24.1364C40.4104 24.0178 40.7829 23.8756 41.1683 23.7875C43.1693 23.331 45.1486 23.4106 47.0769 24.1332C48.2025 24.5551 49.112 25.2613 49.6513 26.3721C50.31 27.73 49.9459 29.0185 48.6659 29.8769C48.5465 29.9569 48.4099 30.02 48.311 30.12C48.2794 30.1568 48.2557 30.1997 48.2415 30.246C48.2274 30.2924 48.223 30.3412 48.2287 30.3893C48.2371 30.4387 48.3677 30.5006 48.4429 30.4998C48.8636 30.4966 49.2048 30.276 49.5324 30.0493C50.353 29.4814 50.9518 28.7175 51.0808 27.7115L51.1061 27.636L51.0752 26.9809C51.0627 26.9431 51.0844 26.9058 51.0816 26.8772C50.9072 25.4124 50.1247 24.2762 48.9866 23.3857C47.6684 22.3548 46.1119 21.9304 44.4658 21.8633C43.1307 21.8059 41.7974 22.0111 40.5414 22.4674C40.1809 22.598 39.8236 22.7527 39.4611 22.8986C39.4125 22.8106 39.3603 22.7262 39.3173 22.639C38.9451 21.877 38.4942 21.1488 38.3945 20.2751C38.3238 19.6546 38.237 19.0349 38.3845 18.4212C38.5264 17.8308 38.7112 17.2505 38.8852 16.6682C38.9749 16.3684 38.9118 16.2004 38.6256 16.0653C38.5256 16.0164 38.4193 15.9815 38.3097 15.9616C37.6064 15.8596 36.9128 15.9178 36.2316 16.116C35.9905 16.1863 35.8152 16.3213 35.7618 16.5882C35.7313 16.7413 35.669 16.888 35.6256 17.0391C35.4475 17.6672 35.3213 18.3074 35.0336 18.9059C34.3126 20.4069 33.4895 21.8513 32.6472 23.2852C32.556 23.4399 32.4599 23.5918 32.345 23.7795C32.0492 23.1606 31.7337 22.6052 31.6381 21.9541C31.53 21.2179 31.4448 20.4828 31.628 19.7522C31.7643 19.2073 31.9423 18.6724 32.1063 18.1346C32.1838 17.879 32.1481 17.7448 31.9166 17.6102C31.7996 17.5423 31.6674 17.482 31.5356 17.4623C30.8144 17.3524 30.0776 17.4127 29.3839 17.6383C29.1657 17.709 29.0511 17.8501 28.9844 18.0752C28.7883 18.7391 28.6211 19.4191 28.3458 20.0504C27.231 22.6064 26.084 25.1491 24.9382 27.6914C24.6991 28.2223 24.419 28.7347 24.1493 29.2516C24.081 29.3826 23.9814 29.4979 23.8962 29.6209C23.8278 29.5401 23.8013 29.4847 23.8017 29.4292C23.8037 29.1025 23.7647 28.7661 23.827 28.4502C24.0183 27.4949 24.2297 26.5436 24.4612 25.5972C24.6501 24.8152 24.8699 24.0403 25.0793 23.2635C25.1496 23.0035 25.1508 22.7603 24.964 22.5417C24.6501 22.1756 23.9942 22.0952 23.6052 22.3773L23.4332 22.4746L23.4665 22.1973C23.5485 21.6029 23.565 21.0105 23.4018 20.425C23.1985 19.6952 22.6776 19.2752 21.9205 19.2985C21.5676 19.3093 21.1971 19.3696 20.8704 19.4982C19.4963 20.0368 18.4398 20.9904 17.5404 22.1378C17.4569 22.2443 17.3536 22.3335 17.2361 22.4006C16.0735 23.0453 14.9072 23.6818 13.7413 24.3208L12.4437 25.0318C12.0956 24.6998 11.7793 24.3554 11.4205 24.0632C10.3245 23.1694 9.2109 22.2978 8.10733 21.414C7.12914 20.6307 6.1815 19.8149 5.4565 18.7777C4.91717 18.006 4.56954 17.1617 4.53618 16.2076C4.49398 14.9919 4.8388 13.8811 5.4577 12.847C6.24941 11.524 7.32928 10.4623 8.51644 9.50055C9.77233 8.48379 11.1307 7.62054 12.5385 6.83244C14.5081 5.73007 16.534 4.7543 18.7062 4.11008C20.9335 3.44938 23.1933 3.07121 25.5242 3.33484C26.4405 3.43853 27.3303 3.64831 28.1473 4.09641C28.773 4.43922 29.2862 4.88813 29.5249 5.58982C29.7605 6.28025 29.7532 6.97993 29.5901 7.68122C29.2585 9.10148 28.4809 10.2722 27.5023 11.3183C25.8971 13.0331 23.9392 14.2006 21.7348 14.9718C20.4674 15.4157 19.1487 15.697 17.8104 15.8089C16.7137 15.901 15.6398 15.8037 14.6014 15.4223C13.9138 15.1695 13.3149 14.7829 12.8335 14.2219C12.7475 14.1214 12.6374 14.0125 12.477 14.1066C12.3199 14.199 12.2921 14.3485 12.3448 14.5C12.4328 14.7516 12.514 15.0136 12.651 15.2387C12.9954 15.8033 13.4978 16.2128 14.0508 16.5641C15.113 17.2396 16.3001 17.4667 17.5311 17.5194C19.3991 17.6001 21.2216 17.3212 23.0184 16.8201C25.5837 16.1047 27.8141 14.8412 29.6029 12.8478C31.0923 11.1881 32.1561 9.31488 32.384 7.05308C32.4953 5.9491 32.3767 4.86763 31.8599 3.86051C31.2993 2.76939 30.4079 1.95799 29.3421 1.39897C27.79 0.58515 26.115 0.111328 24.3861 0.111328H22.6539C20.5601 0.111328 18.5358 0.711342 16.5682 1.4271C15.0788 1.96924 13.6184 2.60904 12.2005 3.31716C9.11284 4.85999 6.23736 6.72032 3.87548 9.27831C2.69877 10.5527 1.70249 11.9589 1.12941 13.6146C0.956735 14.1091 0.807735 14.6115 0.682913 15.1201M11.871 29.5932C11.7371 31.3852 10.9249 32.838 9.59751 34.0147C8.85081 34.6762 7.9944 35.1472 6.99692 35.3128C6.63522 35.3727 6.26509 35.3871 5.91424 35.2372C5.4139 35.0234 5.30177 34.5793 5.29213 34.1063C5.27726 33.3524 5.54129 32.6708 5.90339 32.0222C6.37601 31.1766 7.06886 30.532 7.80873 29.9299C8.97419 28.9811 10.2385 28.1781 11.5334 27.4202L11.631 27.38C11.8312 28.1195 11.9264 28.8497 11.871 29.5932ZM21.9816 21.805C21.8871 22.3773 21.769 22.95 21.6018 23.5046C21.0239 25.4244 20.2816 27.2847 19.479 29.1201C19.3308 29.4597 19.1149 29.7696 18.9273 30.0915C18.8953 30.141 18.8571 30.1861 18.8135 30.2257C18.5812 30.4552 18.361 30.4432 18.2437 30.1429C18.107 29.7941 18.023 29.4208 17.9507 29.0514C17.9021 28.8035 17.9137 28.543 17.8984 28.2891C17.9141 26.483 18.4651 24.8417 19.3999 23.3137C19.7853 22.6836 20.2048 22.0832 20.8459 21.6845C21.0453 21.5606 21.2611 21.4651 21.4869 21.4008C21.8285 21.3047 22.0382 21.4626 21.9816 21.805ZM28.8795 30.5935L31.3587 27.6987C31.462 28.7737 29.6347 30.9198 28.8795 30.5935ZM36.7979 28.6455C36.6226 28.746 36.4317 28.8183 36.2521 28.9112C36.0877 28.9964 36.0335 28.9104 36.0286 28.7689C36.0263 28.671 36.0389 28.5733 36.066 28.4791C36.4008 27.2984 37.0169 26.2905 37.9336 25.4706L37.9979 25.4377C38.4339 26.6574 37.93 27.9969 36.7979 28.6455Z" fill="#CB6699"/>
</svg>
