<svg width="37" height="40" viewBox="0 0 37 40" fill="none" xmlns="http://www.w3.org/2000/svg">
<path d="M36.3477 19.9799C36.3477 30.8236 28.2887 39.6143 18.3477 39.6143C8.4066 39.6143 0.347656 30.8236 0.347656 19.9799C0.347656 9.13624 8.4066 0.34558 18.3477 0.34558C28.2887 0.34558 36.3477 9.13624 36.3477 19.9799Z" fill="white"/>
<path d="M19.7403 17.3014C20.036 16.9393 20.2795 16.5713 20.5832 16.2592C21.5168 15.2996 22.6208 14.8153 23.9099 14.8272C24.6184 14.8336 25.3189 14.8895 26.0019 15.105C27.5643 15.5977 28.4723 16.7709 28.9051 18.4356C29.2299 19.684 29.2896 20.9659 29.2917 22.2516C29.296 24.9641 29.2845 27.6762 29.2899 30.3887C29.2904 30.6426 29.2253 30.7092 28.996 30.7069C27.7152 30.6955 26.4339 30.6952 25.1531 30.7075C24.9277 30.7095 24.8789 30.6333 24.8797 30.4012C24.8869 27.8202 24.8885 25.2395 24.8811 22.6586C24.8789 22.0119 24.8413 21.3656 24.6749 20.7367C24.3685 19.5784 23.6085 18.9882 22.496 19.0522C20.9768 19.1398 20.1869 19.9603 19.9933 21.6451C19.9469 22.0477 19.9251 22.4503 19.9253 22.8558C19.9275 25.3658 19.9229 27.8755 19.9315 30.3855C19.9323 30.6359 19.8749 30.7098 19.6405 30.7075C18.3504 30.695 17.06 30.6964 15.7696 30.7063C15.5629 30.708 15.5029 30.6473 15.5032 30.4192C15.5091 25.4498 15.5091 20.4804 15.5029 15.5111C15.5027 15.2653 15.5765 15.2083 15.7896 15.21C17.0149 15.2199 18.2405 15.2211 19.4656 15.2091C19.6912 15.2071 19.7493 15.2865 19.7443 15.5195C19.7317 16.1132 19.7403 16.7074 19.7403 17.3014Z" fill="#312A28"/>
<path d="M12.7221 22.9806C12.7221 25.4388 12.7183 27.8973 12.7274 30.3559C12.7285 30.629 12.6661 30.7116 12.4069 30.7084C11.1266 30.693 9.8458 30.6968 8.56527 30.7064C8.3602 30.7081 8.29834 30.652 8.29834 30.4207C8.30474 25.4432 8.3042 20.4657 8.29967 15.4882C8.2994 15.2822 8.34527 15.2089 8.5458 15.2101C9.84473 15.2194 11.1439 15.222 12.4429 15.2086C12.6925 15.2057 12.7266 15.3116 12.7261 15.5449C12.7199 18.0235 12.7221 20.502 12.7221 22.9806Z" fill="#312A28"/>
<path d="M13.075 10.2773C13.076 11.821 11.9278 13.0785 10.516 13.0791C9.12216 13.0797 7.96402 11.821 7.95949 10.3015C7.95469 8.76536 9.11229 7.50032 10.5211 7.50178C11.9203 7.50323 13.0734 8.75663 13.075 10.2773Z" fill="#312A28"/>
</svg>
