<svg width="220" height="220" viewBox="0 0 220 220" fill="none" xmlns="http://www.w3.org/2000/svg">
<path d="M40.5746 187.007L25.1333 13.75H194.863L179.401 186.979L109.895 206.25L40.5746 187.007Z" fill="#1572B6"/>
<path d="M110 191.524L166.169 175.952L179.382 27.9197H110V191.524Z" fill="#33A9DC"/>
<path d="M110 90.6885H138.119L140.057 68.9291H110V47.6785H163.281L162.773 53.3778L157.554 111.939H110V90.6885Z" fill="white"/>
<path d="M110.132 145.873L110.036 145.901L86.372 139.507L84.8595 122.56H63.5264L66.5032 155.924L110.029 168.011L110.132 167.983V145.873Z" fill="#EBEBEB"/>
<path d="M136.309 111.037L133.752 139.493L110.054 145.887V167.997L153.614 155.924L153.937 152.335L157.629 111.037H136.309Z" fill="white"/>
<path d="M110.076 47.6785V68.9291H58.7472L58.3209 64.151L57.3515 53.3778L56.8428 47.6785H110.076ZM110 90.6885V111.939H86.6321L86.2059 107.161L85.2434 96.3878L84.7346 90.6885H110Z" fill="#EBEBEB"/>
</svg>
