<svg width="192" height="192" viewBox="0 0 192 192" fill="none" xmlns="http://www.w3.org/2000/svg">
<g clip-path="url(#clip0_410_1160)">
<path d="M142.494 180.03C141.78 180.408 141.84 180.528 142.524 180.18C142.735 180.094 142.928 179.97 143.094 179.814C143.094 179.688 143.094 179.688 142.494 180.03ZM143.934 179.25C143.592 179.532 143.592 179.532 144 179.346C144.151 179.275 144.289 179.18 144.408 179.064C144.408 178.902 144.312 178.938 143.934 179.25ZM144.87 178.686C144.528 178.968 144.528 178.968 144.936 178.782C145.087 178.71 145.225 178.612 145.344 178.494C145.344 178.344 145.248 178.374 144.87 178.686ZM145.818 178.128C145.476 178.41 145.476 178.41 145.872 178.218C146.094 178.098 146.28 177.972 146.28 177.936C146.28 177.786 146.184 177.816 145.818 178.128ZM147.096 177.282C146.442 177.72 146.214 178.002 146.814 177.69C147.216 177.444 147.9 176.904 147.78 176.904C147.522 177 147.306 177.162 147.09 177.282H147.096ZM89.718 0.0659508C89.28 0.0959508 87.966 0.215951 86.814 0.311951C59.526 2.78395 33.996 17.472 17.814 40.0979C8.87138 52.5074 3.05855 66.8934 0.87 82.032C0.096 87.312 0 88.8719 0 96.0299C0 103.182 0.096 104.718 0.87 109.998C6.096 146.064 31.752 176.34 66.528 187.56C72.786 189.558 79.344 190.938 86.814 191.784C89.718 192.096 102.276 192.096 105.18 191.784C118.092 190.344 128.994 187.158 139.782 181.656C141.438 180.816 141.75 180.594 141.528 180.408C136.265 173.451 131.047 166.461 125.874 159.438L110.532 138.72L91.314 110.25C84.9215 100.718 78.4633 91.2293 71.94 81.7859C71.874 81.7859 71.79 94.4399 71.754 109.872C71.688 136.902 71.688 138 71.346 138.624C71.018 139.378 70.4304 139.989 69.69 140.346C69.096 140.628 68.562 140.688 65.724 140.688H62.478L61.632 140.16C61.1021 139.82 60.6716 139.346 60.384 138.786L59.976 137.94L60.006 100.314L60.072 62.688L60.666 61.938C61.0454 61.4768 61.5124 61.0955 62.04 60.816C62.826 60.438 63.138 60.378 66.384 60.378C70.194 60.378 70.824 60.528 71.826 61.626C79.6112 73.2052 87.3293 84.8294 94.98 96.4979C107.454 115.41 124.482 141.216 132.852 153.876L148.074 176.91L148.824 176.412C156.139 171.551 162.769 165.729 168.534 159.102C180.627 145.26 188.475 128.227 191.136 110.04C191.91 104.76 192.006 103.194 192.006 96.0419C192.006 88.8839 191.91 87.354 191.136 82.074C185.91 46.008 160.254 15.732 125.478 4.50595C118.979 2.44748 112.289 1.04646 105.51 0.323951C103.692 0.137951 91.284 -0.0840492 89.724 0.0779508L89.718 0.0659508ZM129 58.128C129.446 58.3472 129.845 58.6532 130.171 59.0283C130.498 59.4033 130.746 59.8397 130.902 60.312C131.064 60.816 131.094 71.25 131.064 94.752L130.998 128.496L125.064 119.376L119.094 110.25V85.752C119.094 69.87 119.16 60.966 119.244 60.528C119.538 59.5236 120.211 58.6734 121.122 58.158C121.866 57.78 122.154 57.75 125.124 57.75C127.902 57.75 128.376 57.78 129 58.128Z" fill="black"/>
</g>
<defs>
<clipPath id="clip0_410_1160">
<rect width="192" height="192" fill="white"/>
</clipPath>
</defs>
</svg>
