<svg width="297" height="297" viewBox="0 0 297 297" fill="none" xmlns="http://www.w3.org/2000/svg">
<path d="M54.7803 252.459L33.9253 18.5625H263.079L242.197 252.422L148.363 278.438L54.7803 252.459Z" fill="#E44F26"/>
<path d="M148.5 258.557L224.328 237.535L242.166 37.6909H148.5V258.557Z" fill="#F1662A"/>
<path d="M148.5 124.434H110.54L107.922 95.0586H148.5V66.3702H76.5703L77.2571 74.0737L84.3016 153.122H148.5V124.434ZM148.5 198.934L148.37 198.971L116.424 190.349L114.382 167.471H85.5824L89.6012 212.504L148.37 228.82L148.5 228.783V198.934Z" fill="#EBEBEB"/>
<path d="M148.4 124.434V153.122H183.725L180.402 190.331L148.4 198.962V228.811L207.216 212.504L207.643 207.659L214.381 132.137L215.086 124.434H207.355H148.4ZM148.4 66.3702V95.0586H217.694L218.27 88.6174L219.578 74.0737L220.265 66.3702H148.4Z" fill="white"/>
</svg>
