<svg width="85" height="85" viewBox="0 0 85 85" fill="none" xmlns="http://www.w3.org/2000/svg">
<path d="M42.5036 31.8752C39.6857 31.8752 36.9831 32.9946 34.9906 34.9872C32.998 36.9797 31.8786 39.6822 31.8786 42.5002C31.8786 45.3181 32.998 48.0206 34.9906 50.0132C36.9831 52.0057 39.6857 53.1252 42.5036 53.1252C45.3215 53.1252 48.024 52.0057 50.0166 50.0132C52.0092 48.0206 53.1286 45.3181 53.1286 42.5002C53.1286 39.6822 52.0092 36.9797 50.0166 34.9872C48.024 32.9946 45.3215 31.8752 42.5036 31.8752ZM42.5036 24.7918C47.2001 24.7918 51.7043 26.6575 55.0253 29.9785C58.3462 33.2994 60.2119 37.8036 60.2119 42.5002C60.2119 47.1967 58.3462 51.7009 55.0253 55.0218C51.7043 58.3428 47.2001 60.2085 42.5036 60.2085C37.807 60.2085 33.3029 58.3428 29.9819 55.0218C26.6609 51.7009 24.7952 47.1967 24.7952 42.5002C24.7952 37.8036 26.6609 33.2994 29.9819 29.9785C33.3029 26.6575 37.807 24.7918 42.5036 24.7918ZM65.5244 23.9064C65.5244 25.0805 65.058 26.2066 64.2278 27.0368C63.3975 27.8671 62.2715 28.3335 61.0973 28.3335C59.9232 28.3335 58.7972 27.8671 57.9669 27.0368C57.1367 26.2066 56.6702 25.0805 56.6702 23.9064C56.6702 22.7323 57.1367 21.6062 57.9669 20.776C58.7972 19.9458 59.9232 19.4793 61.0973 19.4793C62.2715 19.4793 63.3975 19.9458 64.2278 20.776C65.058 21.6062 65.5244 22.7323 65.5244 23.9064ZM42.5036 14.1668C33.7415 14.1668 32.3107 14.1916 28.2342 14.3722C25.4575 14.5033 23.5946 14.8752 21.8663 15.5481C20.4199 16.0791 19.1123 16.9303 18.0413 18.0379C16.9328 19.1089 16.0805 20.4164 15.548 21.8629C14.875 23.5983 14.5032 25.4577 14.3757 28.2308C14.1915 32.1408 14.1667 33.5079 14.1667 42.5002C14.1667 51.2658 14.1915 52.6931 14.3721 56.7695C14.5032 59.5427 14.875 61.4091 15.5444 63.1339C16.1465 64.6745 16.8548 65.7831 18.0307 66.9589C19.2242 68.1489 20.3327 68.8608 21.8557 69.4487C23.6052 70.1252 25.4682 70.5006 28.2307 70.6281C32.1407 70.8122 33.5077 70.8335 42.5 70.8335C51.2657 70.8335 52.693 70.8087 56.7694 70.6281C59.539 70.497 61.4019 70.1252 63.1338 69.4558C64.5788 68.9221 65.8859 68.0714 66.9588 66.966C68.1523 65.776 68.8642 64.6675 69.4521 63.141C70.125 61.3985 70.5005 59.5356 70.628 56.766C70.8121 52.8595 70.8334 51.4889 70.8334 42.5002C70.8334 33.7381 70.8086 32.3072 70.628 28.2308C70.4969 25.4612 70.1215 23.5912 69.4521 21.8629C68.9183 20.4179 68.0675 19.1109 66.9623 18.0379C65.8918 16.9288 64.5841 16.0764 63.1373 15.5445C61.4019 14.8716 59.539 14.4997 56.7694 14.3722C52.863 14.1881 51.4994 14.1668 42.5036 14.1668ZM42.5036 7.0835C52.1263 7.0835 53.3269 7.11891 57.1059 7.296C60.8742 7.47308 63.4455 8.06454 65.7015 8.94287C68.039 9.84245 70.0082 11.0608 71.9773 13.0264C73.7783 14.7969 75.1718 16.9385 76.0609 19.3022C76.9357 21.5583 77.5307 24.1295 77.7077 27.9014C77.8742 31.6768 77.9202 32.8775 77.9202 42.5002C77.9202 52.1229 77.8848 53.3235 77.7077 57.0989C77.5307 60.8708 76.9357 63.4385 76.0609 65.6981C75.1742 68.0631 73.7804 70.2052 71.9773 71.9739C70.2064 73.7742 68.0649 75.1676 65.7015 76.0575C63.4455 76.9323 60.8742 77.5273 57.1059 77.7043C53.3269 77.8708 52.1263 77.9168 42.5036 77.9168C32.8809 77.9168 31.6802 77.8814 27.9013 77.7043C24.133 77.5273 21.5652 76.9323 19.3057 76.0575C16.941 75.1702 14.799 73.7764 13.0298 71.9739C11.2287 70.2037 9.83511 68.062 8.94629 65.6981C8.06796 63.442 7.4765 60.8708 7.29941 57.0989C7.12941 53.3235 7.08691 52.1229 7.08691 42.5002C7.08691 32.8775 7.12233 31.6768 7.29941 27.9014C7.4765 24.126 8.06796 21.5618 8.94629 19.3022C9.83254 16.937 11.2264 14.7948 13.0298 13.0264C14.7995 11.2245 16.9413 9.83087 19.3057 8.94287C21.5617 8.06454 24.1294 7.47308 27.9013 7.296C31.6802 7.12954 32.8809 7.0835 42.5036 7.0835Z" fill="black"/>
</svg>
