<svg width="85" height="93" viewBox="0 0 85 93" fill="none" xmlns="http://www.w3.org/2000/svg">
<path d="M85 46.3589C85 71.9621 65.972 92.7178 42.5 92.7178C19.0281 92.7178 0 71.9621 0 46.3589C0 20.7558 19.0281 6.86646e-05 42.5 6.86646e-05C65.972 6.86646e-05 85 20.7558 85 46.3589Z" fill="black"/>
<path d="M45.7885 40.0342C46.4868 39.1791 47.0616 38.3104 47.7788 37.5734C49.9831 35.3077 52.5898 34.1642 55.6334 34.1923C57.3063 34.2074 58.9604 34.3393 60.5729 34.8482C64.2619 36.0116 66.4057 38.7815 67.4276 42.712C68.1945 45.6598 68.3355 48.6865 68.3405 51.7221C68.3506 58.1265 68.3236 64.5303 68.3362 70.9346C68.3374 71.5342 68.1838 71.6915 67.6423 71.686C64.6182 71.6592 61.5929 71.6585 58.5687 71.6874C58.0367 71.6922 57.9215 71.5122 57.9234 70.9642C57.9404 64.8702 57.9441 58.7769 57.9265 52.683C57.9215 51.1562 57.8327 49.6302 57.4398 48.1453C56.7163 45.4105 54.9219 44.017 52.2951 44.1681C48.7081 44.3748 46.8431 46.3122 46.386 50.2902C46.2765 51.2407 46.2249 52.1912 46.2255 53.1486C46.2305 59.075 46.2198 65.0007 46.2399 70.9271C46.2418 71.5184 46.1064 71.6929 45.553 71.6874C42.5069 71.6578 39.4601 71.6613 36.4133 71.6846C35.9254 71.6887 35.7837 71.5452 35.7843 71.0067C35.7982 59.2735 35.7982 47.5402 35.7837 35.807C35.7831 35.2266 35.9575 35.092 36.4605 35.0961C39.3537 35.1195 42.2475 35.1222 45.14 35.0941C45.6727 35.0893 45.8099 35.2768 45.798 35.8269C45.7684 37.2287 45.7885 38.6318 45.7885 40.0342Z" fill="#222426"/>
<path d="M29.2169 53.4431C29.2169 59.2472 29.2081 65.052 29.2295 70.8568C29.232 71.5017 29.0847 71.6968 28.4727 71.6892C25.4498 71.6528 22.4257 71.6618 19.4022 71.6844C18.918 71.6886 18.772 71.556 18.772 71.01C18.7871 59.2575 18.7858 47.505 18.7751 35.7525C18.7745 35.2663 18.8828 35.0932 19.3563 35.096C22.4232 35.1179 25.4907 35.1241 28.5577 35.0925C29.147 35.0857 29.2276 35.3357 29.2263 35.8865C29.2119 41.7387 29.2169 47.5909 29.2169 53.4431Z" fill="#222426"/>
<path d="M30.0509 23.4492C30.0534 27.094 27.3422 30.0631 24.009 30.0645C20.7179 30.0658 17.9834 27.094 17.9727 23.5062C17.9614 19.8792 20.6946 16.8923 24.0209 16.8958C27.3246 16.8992 30.0471 19.8586 30.0509 23.4492Z" fill="#222426"/>
</svg>
