<svg width="108" height="108" viewBox="0 0 108 108" fill="none" xmlns="http://www.w3.org/2000/svg">
<path d="M53.9998 101.25C52.7249 101.251 51.4724 100.915 50.3683 100.278L38.8123 93.4369C37.0876 92.4717 37.928 92.1308 38.4984 91.9317C40.3326 91.365 42.0889 90.5713 43.7263 89.5692C43.8633 89.5057 44.0143 89.4784 44.1649 89.4896C44.3155 89.5008 44.4607 89.5503 44.5869 89.6333L53.4665 94.9084C53.6319 94.9959 53.8161 95.0416 54.0031 95.0416C54.1902 95.0416 54.3744 94.9959 54.5398 94.9084L89.1673 74.9217C89.3293 74.8246 89.4633 74.6871 89.5562 74.5226C89.6491 74.3581 89.6977 74.1723 89.6971 73.9834V34.0032C89.6973 33.8113 89.6479 33.6226 89.554 33.4553C89.46 33.288 89.3245 33.1477 89.1605 33.048L54.533 13.0782C54.3697 12.9862 54.1855 12.9379 53.9981 12.9379C53.8107 12.9379 53.6264 12.9862 53.4631 13.0782L18.8559 33.0548C18.6908 33.1524 18.5537 33.291 18.458 33.4572C18.3622 33.6233 18.3109 33.8114 18.3091 34.0032V73.9665C18.3096 74.155 18.3602 74.34 18.4557 74.5024C18.5511 74.6649 18.6881 74.7991 18.8525 74.8913L28.3498 80.3723C33.4966 82.944 36.6489 79.9133 36.6489 76.869V37.4119C36.6489 37.1434 36.7556 36.8858 36.9454 36.696C37.1353 36.5061 37.3929 36.3994 37.6614 36.3994H42.0489C42.3174 36.3994 42.575 36.5061 42.7648 36.696C42.9547 36.8858 43.0614 37.1434 43.0614 37.4119V76.8724C43.0614 83.7405 39.3219 87.6724 32.8081 87.6724C29.998 87.7214 27.232 86.9699 24.833 85.5057L15.7306 80.2845C14.6256 79.641 13.7087 78.7189 13.0715 77.6103C12.4343 76.5017 12.099 75.2453 12.0991 73.9665V34.0032C12.0959 32.7224 12.4297 31.4634 13.0672 30.3526C13.7046 29.2418 14.6232 28.3183 15.7306 27.675L50.3615 7.68153C51.4771 7.07122 52.7282 6.75134 53.9998 6.75134C55.2713 6.75134 56.5225 7.07122 57.638 7.68153L92.2655 27.675C93.3704 28.3173 94.2875 29.2381 94.9253 30.3455C95.5631 31.4529 95.8994 32.7083 95.9004 33.9863V73.9665C95.8985 75.2453 95.562 76.5012 94.9243 77.6096C94.2867 78.718 93.37 79.6402 92.2655 80.2845L57.638 100.278C56.5318 100.916 55.2769 101.252 53.9998 101.25Z" fill="#83CD29"/>
<path d="M47.4331 60.5914C47.4331 60.3229 47.5398 60.0653 47.7297 59.8755C47.9195 59.6856 48.1771 59.5789 48.4456 59.5789H52.9242C53.1635 59.5797 53.3948 59.6652 53.5771 59.8203C53.7593 59.9753 53.8808 60.1899 53.9199 60.426C54.5949 64.9857 56.6199 67.284 65.7762 67.284C73.0696 67.284 76.178 65.6337 76.178 61.7625C76.178 59.5317 75.2971 57.8745 63.9605 56.7642C54.4835 55.8259 48.6245 53.7267 48.6245 46.1532C48.6245 39.1669 54.5139 34.9988 64.3857 34.9988C75.4794 34.9988 80.9705 38.8497 81.6657 47.1117C81.6764 47.2496 81.6586 47.3882 81.6135 47.519C81.5685 47.6498 81.4971 47.77 81.4038 47.8722C81.3105 47.9743 81.1973 48.0563 81.0711 48.113C80.9449 48.1697 80.8084 48.1999 80.6701 48.2018H76.1611C75.9349 48.1986 75.7163 48.1198 75.5401 47.9779C75.3639 47.836 75.2404 47.6391 75.1891 47.4188C74.1125 42.6229 71.4766 41.0907 64.3891 41.0907C56.4241 41.0907 55.4994 43.8649 55.4994 45.9439C55.4994 48.4617 56.5929 49.1974 67.3456 50.6183C77.987 52.0257 83.0427 54.0169 83.0427 61.4959C83.0427 69.0424 76.7517 73.3624 65.7796 73.3624C50.609 73.3827 47.4331 66.4268 47.4331 60.5914Z" fill="#83CD29"/>
</svg>
